<?xml version="1.0" encoding="UTF-8"?>
<svg width="95px" height="67px" viewBox="0 0 95 67" version="1.1" xmlns="http://www.w3.org/2000/svg" xmlns:xlink="http://www.w3.org/1999/xlink">
    <title>Group 13</title>
    <g id="Symbols" stroke="none" stroke-width="1" fill="none" fill-rule="evenodd">
        <g id="menu" transform="translate(-673.000000, -39.000000)" fill="#EBCB9A">
            <g id="logo-head" transform="translate(646.000000, 1.000000)">
                <g id="Group-13" transform="translate(27.734566, 38.166936)">
                    <polygon id="Fill-1" points="50.3430784 -6.30945614e-05 44.0875231 2.14226767 44.1271825 3.91504457 49.4871556 2.04212759 55.7139579 15.0272587 65.0177016 12.4343427 79.105906 40.4615778 80.9874759 40.4708617 65.8848913 10.4749861 56.606115 13.0609618"></polygon>
                    <path d="M34.4656385,7.43013272 C34.4656385,6.77584212 33.9352836,6.24539713 33.280993,6.24539713 C32.6266123,6.24539713 32.0962574,6.77584212 32.0962574,7.43013272 C32.0962574,8.08451346 32.6266123,8.61477818 33.280993,8.61477818 C33.9352836,8.61477818 34.4656385,8.08451346 34.4656385,7.43013272" id="Fill-2"></path>
                    <path d="M2.60992456,14.7802345 C2.60992456,9.70301515 11.7583656,9.7537612 11.7583656,14.6956878 L13.5624193,14.1201753 C13.5624193,7.82450978 0.767923906,6.96128605 0.767923906,14.8817266 C0.767923906,22.5483468 12.2087706,18.4415218 12.0851954,26.2546114 C11.9755911,33.1891544 1.77698621,32.3980387 1.77698621,26.4958129 L-2.70405263e-05,27.066999 C-2.70405263e-05,34.5812908 14.0129145,35.8864469 14.0129145,25.8463896 C14.0129145,17.003146 2.60992456,20.4666769 2.60992456,14.7802345" id="Fill-4"></path>
                    <path d="M27.0134497,14.4940736 C29.5650839,14.8714692 29.0508632,18.6376737 22.7451928,21.2129233 C21.8581734,18.3330171 24.247925,14.0850406 27.0134497,14.4940736 M24.2228674,26.4904228 C25.2452697,26.9314538 26.0732506,26.8824203 26.0732506,26.8824203 C29.3619194,26.8824203 31.9690768,24.1448375 32.8403226,23.10567 C33.8626348,24.605608 36.2029923,24.831757 39.0614463,21.915977 C40.1587509,23.0914287 42.2302355,23.1373074 44.4791059,20.9125031 L44.4791059,18.7560211 C42.9222927,20.8469749 40.0838486,21.7037089 40.0838486,18.9619798 C40.0838486,16.8634547 40.1229673,4.42273947 40.1229673,4.42273947 L38.2425691,3.86218936 L38.2425691,19.617352 C38.2425691,19.884242 38.267176,20.1404059 38.3139561,20.3832298 C36.7467773,22.3807135 34.2107365,23.1699364 34.2107365,20.4851726 C34.2107365,18.3866475 34.2498551,10.8199872 34.2498551,10.8199872 L32.3494469,10.2707941 L32.2864425,20.9503598 C31.899763,21.8604538 30.4782425,23.4891948 28.5772034,24.3946018 C26.6423636,25.3160528 24.6007137,25.6892121 23.4155274,23.1250491 C23.4155274,23.1250491 29.2679987,20.8596839 30.1175219,17.4614108 C31.0403249,13.7700185 28.5975739,12.6113319 26.4711069,12.6473859 C23.3209757,12.7006558 19.2906754,17.2861882 21.0054955,22.6007333 C21.4393156,23.9452784 22.0668361,24.8684419 22.7332949,25.5021817 C20.5221911,27.5224696 17.7203419,28.1386331 17.7442277,26.0263173 C17.7572072,24.8713263 17.767753,20.5811665 17.7746032,16.9567445 L19.8074199,16.3287733 L19.8120168,14.3247999 L17.7781185,14.9628662 C17.7814535,12.9490681 17.7833463,11.4800464 17.7833463,11.4800464 L15.9029481,10.9278789 L15.9029481,15.5510878 L14.6152783,15.9549831 L14.6035607,17.9363326 L15.9029481,17.5349611 L15.9029481,26.6816895 C15.9029481,29.57115 19.2824731,30.7941029 24.2228674,26.4904228" id="Fill-7"></path>
                    <path d="M27.9515126,40.4489318 C27.5944875,42.7599955 24.7522578,45.5444486 22.4027065,45.2993713 C19.7696803,45.0249099 19.7619287,41.2176038 20.4911215,39.1694642 C21.1783115,37.239672 23.4087943,33.9963411 26.0580448,34.6558596 C28.439504,35.2488583 28.2973609,38.2094354 27.9515126,40.4489318 M92.7253808,51.9019467 C91.5385721,48.5627121 89.4125558,46.4085737 86.4071816,45.4997416 C83.9537045,44.7581101 80.9124565,44.900163 77.6126109,45.9111181 L77.5997216,45.9149939 C77.5997216,45.9149939 30.6015743,62.3978171 27.6159397,63.2272402 C26.8278886,63.4461783 17.8719762,64.6717451 17.8719762,56.7553606 C17.8719762,53.1868224 20.7754076,50.2835712 24.3439459,50.2835712 C25.0794482,50.2835712 26.244985,51.2135851 27.0958602,51.8924825 C27.5129153,52.2254415 27.9067155,52.5391117 28.2646419,52.7690463 L28.2037106,52.8056411 L28.2796945,52.7792315 L28.2995242,52.7483152 L30.0257914,51.7171698 C30.0257914,49.3360712 30.0563472,37.837538 30.0633777,35.2158689 C30.8189802,35.188558 31.8277721,34.6334159 33.1304945,33.2886004 L33.082813,40.2281008 C33.1499637,43.06997 36.2128441,45.5622953 41.1497231,40.6812099 C42.2578439,41.5941882 44.4978811,41.8656751 47.1978776,39.0999701 L47.304868,38.9954134 C48.5919069,39.9647261 51.0624195,39.6369949 54.4036371,36.6546052 L54.396246,34.4380031 C52.0257833,37.2172284 48.1417723,38.7700757 48.1417723,36.0284367 C48.1417723,34.90968 48.152949,31.2829145 48.1632244,28.1398138 L50.3212387,27.4731747 L50.3258356,25.4692915 L48.1698944,26.145575 C48.1762039,24.3300741 48.1808909,23.0048179 48.1808909,23.0048179 L46.3004025,22.4257901 L46.3004025,26.7319038 L45.1291872,27.0994746 L45.1173795,29.080734 L46.3004025,28.7152362 L46.3004025,36.6837188 C46.3004025,37.0112697 46.3390705,37.3211541 46.4140629,37.6076936 C44.8478756,39.5901247 42.3689804,40.3651062 42.3689804,37.6894461 C42.3689804,35.590921 42.4082793,29.1232778 42.4082793,29.1232778 L40.4654175,28.5396531 L40.4035848,38.9509768 C38.5371576,41.6717044 34.8283691,42.5461049 34.9459053,39.4694338 C35.0262156,37.3723509 34.9852042,31.3826039 34.9852042,31.3826039 L33.1470793,30.8927197 L33.1467188,30.9327397 L33.1370743,30.9091243 C31.580171,33.000078 30.1469329,33.9760608 30.0467027,32.5205594 L28.205333,31.979208 C28.205333,32.0021023 28.2057837,32.0249065 28.205964,32.0477107 L28.2025388,32.0426631 L28.1983025,33.407759 C27.8488488,33.1487108 27.4420691,32.9525768 26.972285,32.8354914 C23.4041073,31.9471199 20.1828595,35.4671655 19.1339575,38.0188898 C17.8848655,41.0573436 17.9921262,46.626971 22.0921911,46.9695745 C24.2600301,47.150746 26.6255353,46.0374875 28.1655834,44.0803844 L28.1475564,50.5260346 C26.9872474,49.6000768 25.6742496,48.5593771 24.3439459,48.5593771 C19.8245726,48.5593771 16.1477821,52.2360775 16.1477821,56.7553606 C16.1477821,66.4917528 26.2640035,65.4099515 27.6159397,64.938545 C36.5019974,61.8403316 78.1101566,47.4892032 78.1101566,47.4892032 C81.0901127,46.5783882 83.5745062,46.4278626 85.7091754,47.0731397 C88.1839244,47.8215313 90.0583737,49.5304024 91.0595942,52.3470338 C91.8846007,54.668463 91.7210957,57.1354603 90.6389338,59.2641807 C89.6547488,61.2009133 88.2053766,62.4853383 86.3777975,63.0284022 L86.3439969,64.905826 C88.8825615,64.1950206 91.0569803,62.4403609 92.2428877,60.1066733 C93.5327208,57.5692805 93.7040676,54.6553934 92.7253808,51.9019467" id="Fill-9"></path>
                </g>
            </g>
        </g>
    </g>
</svg>