<?xml version="1.0" encoding="UTF-8"?>
<svg width="21px" height="21px" viewBox="0 0 21 21" version="1.1" preserveAspectRatio="none" xmlns="http://www.w3.org/2000/svg" xmlns:xlink="http://www.w3.org/1999/xlink">
    <title>icon/grape</title>
    <g id="Page-1" stroke="none" stroke-width="1" fill="none" fill-rule="evenodd">
        <g id="wine-sudwand" transform="translate(-623.000000, -554.000000)" fill="#EBCB9A" fill-rule="nonzero">
            <g id="icon/grape" transform="translate(623.000000, 554.000000)">
                <path d="M20.0853333,4.91166667 L20.3933333,4.28283333 C20.3373333,4.25483333 19.0026667,3.60966667 17.7251667,4.07283333 C17.2596667,4.242 16.8665,4.5325 16.5503333,4.942 C16.0825,5.0435 15.6333333,5.24766667 15.2145,5.49033333 C15.2436667,4.69233333 15.1328333,3.353 14.2158333,2.26216667 C12.8636667,0.6545 10.745,0.491166667 10.6551667,0.485333333 L10.339,0.463166667 L10.2865,0.777 C10.276,0.84 10.0543333,2.2365 10.2398333,3.7835 C9.00433333,3.9585 8.036,4.93383333 7.86683333,6.1705 C7.36983333,5.38416667 6.49833333,4.85566667 5.50083333,4.85566667 C3.955,4.85566667 2.6985,6.11333333 2.6985,7.658 C2.6985,8.6905 3.2655,9.58416667 4.0985,10.0706667 C2.75333333,10.2748333 1.71616667,11.4298333 1.71616667,12.831 C1.71616667,13.7153333 2.13616667,14.4958333 2.77783333,15.0091667 C1.53533333,15.2961667 0.6055,16.4056667 0.6055,17.7345 C0.6055,19.2803333 1.862,20.5368333 3.40783333,20.5368333 C4.86383333,20.5368333 6.04916667,19.4168333 6.1845,17.9958333 C6.68033333,18.7868333 7.55416667,19.3188333 8.554,19.3188333 C9.87816667,19.3188333 10.9841667,18.3925 11.2758333,17.1558333 C11.7833333,17.6621667 12.4833333,17.976 13.2556667,17.976 C14.8015,17.976 16.058,16.7195 16.058,15.1736667 C16.058,14.371 15.715,13.6511667 15.1725,13.1401667 C16.3368333,12.8006667 17.1955,11.7343333 17.1955,10.4615 C17.1955,8.91566667 15.9378333,7.65916667 14.3931667,7.65916667 C14.1411667,7.65916667 13.902,7.7035 13.6698333,7.76533333 C14.0513333,7.33016667 14.5261667,6.8425 15.0686667,6.405 L15.1071667,6.3945 L15.113,6.36766667 C15.1141667,6.3665 15.1141667,6.3665 15.1153333,6.36533333 C15.3836667,6.15183333 15.7103333,5.96866667 16.0556667,5.82983333 C15.8305,6.4365 15.8631667,7.028 16.1536667,7.511 C16.4511667,8.0045 17.0041667,8.33816667 17.598,8.38016667 C18.3446667,8.42916667 18.9373333,8.10716667 19.2243333,7.4865 C19.5381667,6.80633333 19.3865,5.92783333 18.8626667,5.39583333 C18.557,5.08433333 18.1381667,4.9175 17.6703333,4.86733333 C17.7625,4.81366667 17.8593333,4.76933333 17.9608333,4.732 C18.9536667,4.37033333 20.076,4.907 20.0853333,4.91166667 Z M10.633,4.44266667 C11.7926667,4.44266667 12.7365,5.3865 12.7365,6.54616667 C12.7365,7.70583333 11.7926667,8.64966667 10.633,8.64966667 C9.47333333,8.64966667 8.53066667,7.70583333 8.53066667,6.54616667 C8.53066667,5.3865 9.47333333,4.44266667 10.633,4.44266667 Z M12.2255,12.215 C12.3048333,12.313 12.3853333,12.4086667 12.4775,12.495 C12.3468333,12.5335 12.2185,12.5743333 12.0971667,12.6291667 C12.1496667,12.4961667 12.194,12.3585 12.2255,12.215 Z M12.0376667,8.9565 C11.8626667,9.2295 11.732,9.53283333 11.6596667,9.8595 C11.4893333,9.6495 11.298,9.457 11.074,9.303 C11.4228333,9.24816667 11.746,9.128 12.0376667,8.9565 Z M8.26816667,8.03483333 C8.47233333,8.358 8.736,8.63916667 9.051,8.85616667 C7.87266667,9.04516667 6.94166667,9.96333333 6.73866667,11.137 C6.517,10.8465 6.2405,10.605 5.92433333,10.4195 C7.14466667,10.2328333 8.10016667,9.26216667 8.26816667,8.03483333 Z M7.27533333,13.307 C7.42583333,13.5041667 7.602,13.6791667 7.79916667,13.8308333 C7.483,13.9206667 7.18783333,14.0571667 6.92766667,14.245 C7.0945,13.9591667 7.21583333,13.6453333 7.27533333,13.307 Z M3.40083333,7.658 C3.40083333,6.49833333 4.34466667,5.5545 5.50316667,5.5545 C6.66283333,5.5545 7.60666667,6.49833333 7.60666667,7.658 C7.60666667,8.81766667 6.66283333,9.7615 5.50316667,9.7615 C4.3435,9.7615 3.40083333,8.81883333 3.40083333,7.658 Z M3.409,19.8368333 C2.24933333,19.8368333 1.30666667,18.893 1.30666667,17.7333333 C1.30666667,16.5736667 2.2505,15.631 3.409,15.631 C4.56866667,15.631 5.5125,16.5748333 5.5125,17.7333333 C5.5125,18.8941667 4.56866667,19.8368333 3.409,19.8368333 Z M5.7785,16.254 C5.6105,15.9856667 5.39583333,15.7535 5.14966667,15.5551667 C5.516,15.47 5.852,15.3148333 6.14833333,15.1025 C5.94533333,15.4466667 5.81816667,15.8363333 5.7785,16.254 Z M4.52083333,14.9333333 C3.36116667,14.9333333 2.41733333,13.9895 2.41733333,12.831 C2.41733333,11.6713333 3.36116667,10.7275 4.52083333,10.7275 C5.6805,10.7275 6.62316667,11.6713333 6.62316667,12.831 C6.62316667,13.9906667 5.6805,14.9333333 4.52083333,14.9333333 Z M8.55516667,18.6188333 C7.3955,18.6188333 6.45166667,17.675 6.45166667,16.5153333 C6.45166667,15.3556667 7.3955,14.413 8.55516667,14.413 C9.71483333,14.413 10.6575,15.3568333 10.6575,16.5153333 C10.6575,17.6761667 9.71483333,18.6188333 8.55516667,18.6188333 Z M10.2491667,14.2986667 C10.3868333,14.2601667 10.5221667,14.217 10.6505,14.1575 C10.6026667,14.2788333 10.5641667,14.4048333 10.5338333,14.5331667 C10.4463333,14.4468333 10.3471667,14.3733333 10.2491667,14.2986667 Z M9.492,13.7165 C8.33233333,13.7165 7.3885,12.7726667 7.3885,11.613 C7.3885,10.4533333 8.33233333,9.51066667 9.492,9.51066667 C10.6516667,9.51066667 11.5943333,10.4545 11.5943333,11.613 C11.5943333,12.7726667 10.6516667,13.7165 9.492,13.7165 Z M15.3591667,15.1736667 C15.3591667,16.3333333 14.4153333,17.276 13.2556667,17.276 C12.096,17.276 11.1533333,16.3333333 11.1533333,15.1736667 C11.1533333,14.014 12.0971667,13.0701667 13.2568333,13.0701667 C13.3256667,13.0701667 13.3898333,13.0841667 13.4563333,13.09 C13.6476667,13.1588333 13.8471667,13.2031667 14.0548333,13.2288333 C14.819,13.545 15.3591667,14.2963333 15.3591667,15.1736667 Z M14.3943333,8.35916667 C15.554,8.35916667 16.4978333,9.303 16.4978333,10.4615 C16.4978333,11.6211667 15.554,12.565 14.3943333,12.565 C14.3255,12.565 14.2613333,12.551 14.1948333,12.5451667 C14.0046667,12.4763333 13.804,12.432 13.5975,12.4063333 C12.8333333,12.0913333 12.292,11.34 12.292,10.4626667 C12.292,9.303 13.2346667,8.35916667 14.3943333,8.35916667 Z M13.3863333,7.03616667 C13.4143333,6.87633333 13.4353333,6.71416667 13.4353333,6.54616667 C13.4353333,6.53333333 13.4318333,6.5205 13.4318333,6.50766667 C13.5718333,6.538 13.7118333,6.55433333 13.8506667,6.56016667 C13.685,6.72116667 13.5298333,6.87983333 13.3863333,7.03616667 Z M14.4935,5.82166667 C14.147,5.87766667 13.5986667,5.90566667 13.2918333,5.705 C12.9628333,4.67016667 12.0575,3.9025 10.9491667,3.77533333 C10.8161667,2.7335 10.8791667,1.73133333 10.934,1.2285 C11.529,1.33466667 12.81,1.6765 13.6815,2.7125 C14.5973333,3.79983333 14.5518333,5.26633333 14.4935,5.82166667 Z M18.3645,5.88816667 C18.6853333,6.21483333 18.7821667,6.776 18.5885,7.19483333 C18.4741667,7.43983333 18.2186667,7.72216667 17.647,7.68366667 C17.2771667,7.658 16.9353333,7.45383333 16.7533333,7.15283333 C16.5561667,6.825 16.5585,6.412 16.7591667,5.95933333 C16.8186667,5.824 16.8851667,5.69916667 16.9563333,5.58483333 C17.5315,5.50083333 18.0611667,5.579 18.3645,5.88816667 Z" id="Shape"></path>
            </g>
        </g>
    </g>
</svg>