<?xml version="1.0" encoding="UTF-8"?>
<svg width="40px" height="43px" viewBox="0 0 40 43" preserveAspectRatio="none" version="1.1" xmlns="http://www.w3.org/2000/svg" xmlns:xlink="http://www.w3.org/1999/xlink">
    <title>arrow-wine-r</title>
    <defs>
        <filter x="-16.2%" y="-18.3%" width="132.5%" height="137.8%" filterUnits="objectBoundingBox" id="filter-1">
            <feOffset dx="0" dy="1" in="SourceAlpha" result="shadowOffsetOuter1"></feOffset>
            <feGaussianBlur stdDeviation="1" in="shadowOffsetOuter1" result="shadowBlurOuter1"></feGaussianBlur>
            <feColorMatrix values="0 0 0 0 0   0 0 0 0 0   0 0 0 0 0  0 0 0 0.5 0" type="matrix" in="shadowBlurOuter1" result="shadowMatrixOuter1"></feColorMatrix>
            <feMerge>
                <feMergeNode in="shadowMatrixOuter1"></feMergeNode>
                <feMergeNode in="SourceGraphic"></feMergeNode>
            </feMerge>
        </filter>
    </defs>
    <g id="Page-1" stroke="none" stroke-width="1" fill="none" fill-rule="evenodd">
        <g id="wine-line" transform="translate(-1352.000000, -491.000000)" fill="#EBCB9A">
            <g id="Group" transform="translate(1353.777778, 491.000000)">
                <g id="arrow-wine-r" filter="url(#filter-1)" transform="translate(18.000000, 20.777778) scale(-1, 1) rotate(90.000000) translate(-18.000000, -20.777778) translate(-2.000000, 3.000000)">
                    <path d="M19.6426907,22.6941467 C16.2846046,22.6941467 13.5528973,25.425854 13.5528973,28.7839401 C13.5528973,32.1420261 16.2846046,34.8737335 19.6426907,34.8737335 C23.0007768,34.8737335 25.7324841,32.1420261 25.7324841,28.7839401 C25.7324841,25.425854 23.0007768,22.6941467 19.6426907,22.6941467 M19.6426907,35.3708594 C16.0106882,35.3708594 13.0557713,32.4159426 13.0557713,28.7839401 C13.0557713,25.1519376 16.0106882,22.1970207 19.6426907,22.1970207 C23.2746932,22.1970207 26.2296101,25.1519376 26.2296101,28.7839401 C26.2296101,32.4159426 23.2746932,35.3708594 19.6426907,35.3708594" id="Fill-6"></path>
                    <path d="M19.6426907,0.572040115 C16.2846046,0.572040115 13.5528973,3.303996 13.5528973,6.6618335 C13.5528973,10.019671 16.2846046,12.7516269 19.6426907,12.7516269 C23.0007768,12.7516269 25.7324841,10.019671 25.7324841,6.6618335 C25.7324841,3.303996 23.0007768,0.572040115 19.6426907,0.572040115 M19.6426907,13.2487529 C16.0106882,13.2487529 13.0557713,10.293836 13.0557713,6.6618335 C13.0557713,3.02983101 16.0106882,0.0749141249 19.6426907,0.0749141249 C23.2746932,0.0749141249 26.2296101,3.02983101 26.2296101,6.6618335 C26.2296101,10.293836 23.2746932,13.2487529 19.6426907,13.2487529" id="Fill-8"></path>
                    <path d="M32.5679664,0.572040115 C29.2098804,0.572040115 26.4781731,3.303996 26.4781731,6.6618335 C26.4781731,10.019671 29.2098804,12.7516269 32.5679664,12.7516269 C35.9260525,12.7516269 38.6577598,10.019671 38.6577598,6.6618335 C38.6577598,3.303996 35.9260525,0.572040115 32.5679664,0.572040115 M32.5679664,13.2487529 C28.935964,13.2487529 25.9810471,10.293836 25.9810471,6.6618335 C25.9810471,3.02983101 28.935964,0.0749141249 32.5679664,0.0749141249 C36.1999689,0.0749141249 39.1548858,3.02983101 39.1548858,6.6618335 C39.1548858,10.293836 36.1999689,13.2487529 32.5679664,13.2487529" id="Fill-10"></path>
                    <path d="M6.71741494,0.572040115 C3.35932888,0.572040115 0.627621563,3.303996 0.627621563,6.6618335 C0.627621563,10.019671 3.35932888,12.7516269 6.71741494,12.7516269 C10.075501,12.7516269 12.8072083,10.019671 12.8072083,6.6618335 C12.8072083,3.303996 10.075501,0.572040115 6.71741494,0.572040115 M6.71741494,13.2487529 C3.08541246,13.2487529 0.130495572,10.293836 0.130495572,6.6618335 C0.130495572,3.02983101 3.08541246,0.0749141249 6.71741494,0.0749141249 C10.3494174,0.0749141249 13.3043343,3.02983101 13.3043343,6.6618335 C13.3043343,10.293836 10.3494174,13.2487529 6.71741494,13.2487529" id="Fill-12"></path>
                    <path d="M26.1053286,11.7573749 C22.7472425,11.7573749 20.0155352,14.4893308 20.0155352,17.8471683 C20.0155352,21.2052543 22.7472425,23.9369617 26.1053286,23.9369617 C29.4634146,23.9369617 32.195122,21.2052543 32.195122,17.8471683 C32.195122,14.4893308 29.4634146,11.7573749 26.1053286,11.7573749 M26.1053286,24.4340877 C22.4733261,24.4340877 19.5184092,21.4791708 19.5184092,17.8471683 C19.5184092,14.2151658 22.4733261,11.2602489 26.1053286,11.2602489 C29.7373311,11.2602489 32.6922479,14.2151658 32.6922479,17.8471683 C32.6922479,21.4791708 29.7373311,24.4340877 26.1053286,24.4340877" id="Fill-14"></path>
                    <path d="M13.1800528,11.7573749 C9.82196675,11.7573749 7.09025944,14.4893308 7.09025944,17.8471683 C7.09025944,21.2052543 9.82196675,23.9369617 13.1800528,23.9369617 C16.5381389,23.9369617 19.2698462,21.2052543 19.2698462,17.8471683 C19.2698462,14.4893308 16.5381389,11.7573749 13.1800528,11.7573749 M13.1800528,24.4340877 C9.54805033,24.4340877 6.59313345,21.4791708 6.59313345,17.8471683 C6.59313345,14.2151658 9.54805033,11.2602489 13.1800528,11.2602489 C16.8120553,11.2602489 19.7669722,14.2151658 19.7669722,17.8471683 C19.7669722,21.4791708 16.8120553,24.4340877 13.1800528,24.4340877" id="Fill-16"></path>
                </g>
            </g>
        </g>
    </g>
</svg>