<?xml version="1.0" encoding="UTF-8"?>
<svg width="31px" height="31px" viewBox="0 0 31 31" version="1.1" xmlns="http://www.w3.org/2000/svg" xmlns:xlink="http://www.w3.org/1999/xlink">
    <title>iconfinder_jee-79_2180657</title>
    <g id="Page-1" stroke="none" stroke-width="1" fill="none" fill-rule="evenodd">
        <g id="shop-2-steilclub-sale" transform="translate(-1360.000000, -204.000000)">
            <g id="iconfinder_jee-79_2180657" transform="translate(1375.500000, 219.500000) scale(-1, 1) translate(-1375.500000, -219.500000) translate(1361.000000, 205.000000)">
                <path d="M14.3472346,28.6944346 L14.3472,28.6944346 C6.42346154,28.6944346 0,22.2709731 0,14.3472346 L0,14.3472 C0,6.42346154 6.42346154,0 14.3472,0 L14.3472346,0 C22.2709731,0 28.6944346,6.42346154 28.6944346,14.3472 L28.6944346,14.3472346 C28.6944346,22.2709731 22.2709846,28.6944346 14.3472346,28.6944346 Z" id="Path" stroke="#343434" stroke-width="0.7" stroke-linecap="round" stroke-linejoin="round"></path>
                <path d="M21,14.3918482 C21,14.2853354 20.9587604,14.1835977 20.8901213,14.106996 L17.1779983,10.1180363 C17.0313687,9.96045566 16.7939995,9.96085359 16.647744,10.1180363 C16.5011144,10.2752191 16.5011144,10.5305249 16.647744,10.6877077 L19.7201081,13.9889099 L9.37499026,13.9889099 C9.16801309,13.9889431 9,14.169239 9,14.3918482 C9,14.6144574 9.16801309,14.7947865 9.37499026,14.7947865 L19.719734,14.7947865 L16.647744,18.0959887 C16.5011144,18.2531715 16.5014884,18.5084774 16.647744,18.6656601 C16.7943736,18.8228428 17.0317427,18.8228428 17.1779983,18.6656601 L20.8901213,14.6767005 C20.9602255,14.6012925 20.9988778,14.4975652 21,14.3918482 Z" id="Arrow_Forward" fill="#000000" fill-rule="nonzero" transform="translate(15.000000, 14.391774) scale(-1, 1) translate(-15.000000, -14.391774) "></path>
            </g>
        </g>
    </g>
</svg>