<svg height="14" viewBox="0 0 144 14" width="144" preserveAspectRatio="none" xmlns="http://www.w3.org/2000/svg"><path d="m76.8741 33.9412c-.156 5.122-1.751 10.199-3.159 14.68l-.021.065c-.265.848-.533 1.698-.794 2.55-1.18 3.861-2.301 8.013-2.503 12.214-.098 2.069.051 4.043.415 5.891-1.865-4.556-2.719-9.884-2.443-15.646.332-6.954 2.199-13.865 4.167-20.298.439-1.432.887-2.861 1.335-4.286l.034-.11c.553-1.758 1.121-3.572 1.673-5.427.837 3.414 1.402 6.875 1.296 10.367m2.424-31.45c0-10.221-3.137-20.209-6.175-29.883-.353-1.122-.704-2.242-1.051-3.361-1.752-5.657-3.619-12.271-4.461-18.852.436-1.905 1.227-3.582 2.516-5.125 1.152-1.382 3.605-2.433 4.459-4.016.853-1.584 1.074-3.696-.071-5.083-1.466-1.772-4.498-1.401-6.122.228-1.625 1.629-2.138 4.053-2.309 6.347-.229 3.06.021 6.091.59 9.084.919 6.23 2.681 12.412 4.333 17.747.347 1.12.699 2.241 1.052 3.364 3.158 10.056 6.425 20.451 6.101 31.004-.168 5.545-1.341 11.059-2.785 16.295-.475-1.649-.983-3.286-1.492-4.907-.21-.666-.418-1.331-.624-1.996-1.04-3.359-2.15-7.287-2.65-11.194.259-1.131.729-2.127 1.494-3.044.684-.82 2.141-1.444 2.648-2.384s.639-2.195-.042-3.018c-.871-1.053-2.671-.832-3.636.135s-1.268 2.407-1.37 3.769c-.136 1.817.012 3.617.35 5.394.546 3.699 1.592 7.37 2.573 10.538.206.665.415 1.331.625 1.998.614 1.958 1.229 3.94 1.781 5.937-.708 2.476-1.464 4.885-2.19 7.199l-.035.11c-.449 1.428-.898 2.859-1.337 4.294-1.99 6.502-3.877 13.494-4.215 20.57-.408 8.551 1.599 16.2 5.688 21.883.268.492.563.97.906 1.42.482.635 1.088 1.243 1.869 1.41.78.167 1.732-.297 1.824-1.09.071-.619-.392-1.192-.939-1.491-.547-.3-1.459-.142-2.056-.326-.137-.043-.257-.107-.384-.16-.581-.773-1.12-1.584-1.618-2.434-1.131-2.723-1.651-5.915-1.485-9.371.197-4.129 1.305-8.233 2.474-12.053.26-.85.527-1.698.792-2.545l.021-.065c1.421-4.521 3.03-9.645 3.188-14.858.01-.295.014-.589.014-.883 0-3.641-.676-7.231-1.602-10.762 1.687-5.823 3.137-12.041 3.328-18.337.015-.496.023-.993.023-1.488" fill="#fff" fill-rule="evenodd" transform="matrix(0 1 -1 0 78.342927 -65.954835)"/></svg>