<?xml version="1.0" encoding="UTF-8"?>
<svg width="18px" height="14px" viewBox="0 0 18 14" version="1.1" xmlns="http://www.w3.org/2000/svg" xmlns:xlink="http://www.w3.org/1999/xlink">
    <title>icon/next-short</title>
    <g id="Page-1" stroke="none" stroke-width="1" fill="none" fill-rule="evenodd">
        <g id="wine-sudwand" transform="translate(-717.000000, -925.000000)" fill="#C4BBAA" fill-rule="nonzero">
            <g id="Group" transform="translate(717.000000, 925.901173)">
                <g id="icon/next-short" transform="translate(0.000000, 0.000000)">
                    <path d="M17.6254613,6.45296067 C17.6254613,6.29651581 17.5648891,6.14708468 17.4640728,6.03457296 L12.0117494,0.175635166 C11.7963815,-0.0558174985 11.4477364,-0.0552330221 11.232918,0.175635166 C11.0175501,0.406503353 11.0175501,0.781493686 11.232918,1.01236187 L15.7455708,5.86112958 L0.550781359,5.86112958 C0.246775688,5.86117829 0,6.12599482 0,6.45296067 C0,6.77992652 0.246775688,7.04479176 0.550781359,7.04479176 L15.7450214,7.04479176 L11.232918,11.8935595 C11.0175501,12.1244277 11.0180995,12.499418 11.232918,12.7302862 C11.4482858,12.9611544 11.7969309,12.9611544 12.0117494,12.7302862 L17.4640728,6.87134838 C17.5670409,6.7605901 17.6238131,6.60823657 17.6254613,6.45296067 Z" id="Arrow_Forward"></path>
                </g>
            </g>
        </g>
    </g>
</svg>