<?xml version="1.0" encoding="UTF-8"?>
<svg width="94px" height="101px" viewBox="0 0 94 101" preserveAspectRatio="none" version="1.1" xmlns="http://www.w3.org/2000/svg" xmlns:xlink="http://www.w3.org/1999/xlink">
    <title>logo-head</title>
    <defs>
        <polygon id="path-1" points="0 3.03037506e-13 0 73.7565585 46.7935456 100.772557 93.5862486 73.7565585 93.5862486 3.03037506e-13"></polygon>
    </defs>
    <g id="Symbols" stroke="none" stroke-width="1" fill="none" fill-rule="evenodd">
        <g id="mobile-head" transform="translate(-21.000000, 0.000000)">
            <g id="logo-head" transform="translate(21.000000, 0.000000)">
                <mask id="mask-2" fill="white">
                    <use xlink:href="#path-1"></use>
                </mask>
                <use id="Fill-1" fill="#000000" opacity="0.7" xlink:href="#path-1"></use>
                <polygon id="Fill-1" stroke="#FFFFFF" stroke-width="0.55566" mask="url(#mask-2)" points="3.59733642 -10.3864786 3.59733642 71.0904422 47.0504682 96.1778714 90.5028174 71.0904422 90.5028174 -10.3864786"></polygon>
                <line x1="-7.96553064" y1="30.468985" x2="24.4104971" y2="-7.0460948" id="Line-2" stroke="#FFFFFF" stroke-width="0.55566" stroke-linecap="square" mask="url(#mask-2)"></line>
                <line x1="14.1323931" y1="-7.0460948" x2="-3.34038382" y2="42.8027098" id="Line-3" stroke="#FFFFFF" stroke-width="0.55566" stroke-linecap="square" mask="url(#mask-2)"></line>
                <line x1="101.496277" y1="21.7325965" x2="70.6619653" y2="97.2766613" id="Line-4" stroke="#FFFFFF" stroke-width="0.55566" stroke-linecap="square" mask="url(#mask-2)"></line>
                <line x1="67.3215815" y1="-3.19180578" x2="106.378377" y2="95.9918983" id="Line-5" stroke="#FFFFFF" stroke-width="0.55566" stroke-linecap="square" mask="url(#mask-2)"></line>
                <g id="Group-13" mask="url(#mask-2)" fill="#EBCB9A">
                    <g transform="translate(17.472777, 24.045170)">
                        <polygon id="Fill-1" points="31.7161394 -3.97495737e-05 27.7751395 1.34962863 27.800125 2.46647808 31.176908 1.28654038 35.0997935 9.46717299 40.961152 7.83363587 49.8367208 25.490794 51.0221098 25.4966429 41.5074815 6.59924125 35.6618524 8.22840592"></polygon>
                        <path d="M21.7133523,4.68098361 C21.7133523,4.26878054 21.3792287,3.93460019 20.9670256,3.93460019 C20.5547658,3.93460019 20.2206422,4.26878054 20.2206422,4.68098361 C20.2206422,5.09324348 20.5547658,5.42731025 20.9670256,5.42731025 C21.3792287,5.42731025 21.7133523,5.09324348 21.7133523,4.68098361" id="Fill-2"></path>
                        <path d="M1.64425247,9.31154773 C1.64425247,6.11289954 7.4077703,6.14486956 7.4077703,9.25828331 L8.54432418,8.89571041 C8.54432418,4.92944116 0.483792061,4.38561021 0.483792061,9.37548776 C0.483792061,14.2054585 7.69152547,11.6181587 7.61367309,16.5404052 C7.5446224,20.9091673 1.11950131,20.4107644 1.11950131,16.6923621 L-1.70355316e-05,17.0522094 C-1.70355316e-05,21.7862132 8.82813613,22.6084615 8.82813613,16.2832255 C8.82813613,10.711982 1.64425247,12.8940065 1.64425247,9.31154773" id="Fill-4"></path>
                        <path d="M17.0184733,9.13126638 C18.6260029,9.36902562 18.3020438,11.7417345 14.3294714,13.3641417 C13.7706492,11.5498008 15.2761927,8.87357558 17.0184733,9.13126638 M15.2604065,16.6889664 C15.9045199,16.9668159 16.4261479,16.9359248 16.4261479,16.9359248 C18.4980092,16.9359248 20.1405184,15.2112476 20.6894032,14.5565721 C21.3334599,15.5015331 22.8078852,15.6440069 24.6087112,13.8070655 C25.3000131,14.5476001 26.6050484,14.5765037 28.0218367,13.1748769 L28.0218367,11.8162933 C27.0410444,13.1335942 25.2528246,13.6733366 25.2528246,11.9460473 C25.2528246,10.6239764 25.2774694,2.78632586 25.2774694,2.78632586 L24.0928185,2.4331793 L24.0928185,12.3589318 C24.0928185,12.5270725 24.1083209,12.6884557 24.1377923,12.8414348 C23.1504697,14.0998495 21.552764,14.5970599 21.552764,12.9056588 C21.552764,11.5835879 21.5774087,6.81659192 21.5774087,6.81659192 L20.3801516,6.47060028 L20.3404588,13.1987267 C20.0968507,13.7720859 19.2012928,14.7981927 18.0036381,15.3685991 C16.784689,15.9491133 15.4984496,16.1842036 14.7517823,14.5687809 C14.7517823,14.5687809 18.4388392,13.1416009 18.9740388,11.0006888 C19.5554047,8.67511163 18.0164715,7.9451391 16.6767973,7.96785315 C14.6922147,8.00141314 12.1531255,10.8902986 13.2334621,14.238462 C13.5067688,15.0855254 13.9021067,15.6671184 14.3219758,16.0663745 C12.9289804,17.3391558 11.1638154,17.7273388 11.1788635,16.3965799 C11.1870405,15.6689355 11.1936844,12.9661349 11.198,10.682749 L12.4786745,10.2871272 L12.4815706,9.02462395 L11.2002147,9.42660571 C11.2023157,8.15791289 11.2035082,7.23242925 11.2035082,7.23242925 L10.0188573,6.88456369 L10.0188573,9.79718531 L9.20762531,10.0516394 L9.20024325,11.2998896 L10.0188573,11.0470255 L10.0188573,16.8094644 C10.0188573,18.6298245 12.1479581,19.4002848 15.2604065,16.6889664" id="Fill-7"></path>
                        <path d="M17.6094529,25.482827 C17.3845271,26.9387971 15.5939224,28.6930026 14.1137051,28.5386039 C12.4548986,28.3656933 12.4500151,25.9670904 12.9094066,24.6767625 C13.3423362,23.4609934 14.7475404,21.4176949 16.4165682,21.8331915 C17.9168875,22.2067807 17.8273374,24.0719443 17.6094529,25.482827 M58.4169899,32.6982264 C57.6693004,30.5945086 56.3299101,29.2374014 54.4365244,28.6648372 C52.8908338,28.1976093 50.9748476,28.2871027 48.8959449,28.9240044 L48.8878246,28.9264462 C48.8878246,28.9264462 19.2789918,39.3106248 17.398042,39.8331613 C16.9015698,39.9710924 11.259345,40.7431994 11.259345,35.7558772 C11.259345,33.5076981 13.0885068,31.6786499 15.3366859,31.6786499 C15.8000524,31.6786499 16.5343406,32.2645586 17.0703919,32.692264 C17.3331366,32.9020282 17.5812308,33.0996403 17.8067244,33.2444991 L17.7683377,33.2675539 L17.8162075,33.2509159 L17.8287002,33.2314386 L18.9162486,32.581817 C18.9162486,31.0817248 18.9354987,23.837649 18.939928,22.1859974 C19.4159575,22.1687915 20.0514964,21.819052 20.8722115,20.9718183 L20.8421722,25.3437035 C20.8844771,27.1340811 22.8140918,28.7042461 25.9243256,25.6291623 C26.6224416,26.2043386 28.0336651,26.3753753 29.7346629,24.6329812 L29.8020668,24.5671104 C30.6129013,25.1777775 32.1693243,24.9713068 34.2742913,23.0924012 L34.269635,21.6959419 C32.7762435,23.4468539 30.3293165,24.4251477 30.3293165,22.6979151 C30.3293165,21.9930984 30.3363579,19.7082361 30.3428314,17.7280827 L31.7023804,17.3081001 L31.7052764,16.0456536 L30.3470335,16.4717123 C30.3510084,15.3279467 30.3539613,14.4930353 30.3539613,14.4930353 L29.1692536,14.1282478 L29.1692536,16.8410994 L28.4313879,17.072669 L28.4239491,18.3208624 L29.1692536,18.0905988 L29.1692536,23.1107428 C29.1692536,23.3170999 29.1936144,23.5123271 29.2408596,23.6928469 C28.2541616,24.9417786 26.6924577,25.4300169 26.6924577,23.744351 C26.6924577,22.4222802 26.717216,18.347665 26.717216,18.347665 L25.493213,17.9799814 L25.4542585,24.5391154 C24.2784093,26.2531738 21.9418726,26.8040461 22.0159203,24.8657433 C22.0665159,23.544581 22.0406786,19.7710404 22.0406786,19.7710404 L20.88266,19.4624134 L20.8824328,19.487626 L20.8763568,19.4727483 C19.8955077,20.7900492 18.9925678,21.4049183 18.9294227,20.4879524 L17.7693598,20.1469011 C17.7693598,20.1613245 17.7696437,20.1756911 17.7697573,20.1900577 L17.7675995,20.1868778 L17.7649306,21.0468882 C17.5447747,20.8836878 17.2885035,20.7601234 16.9925396,20.6863596 C14.7445876,20.1266856 12.7152015,22.3443143 12.0543932,23.9519006 C11.2674653,25.8661265 11.3350395,29.3749917 13.9180804,29.5908319 C15.283819,29.70497 16.7740873,29.0036171 17.7443176,27.7706421 L17.7329606,31.8314018 C17.0019659,31.2480484 16.1747773,30.5924076 15.3366859,30.5924076 C12.4894807,30.5924076 10.1731027,32.9087288 10.1731027,35.7558772 C10.1731027,41.8898043 16.5463222,41.2082694 17.398042,40.9112833 C22.9962584,38.9594089 49.2093987,29.918198 49.2093987,29.918198 C51.086771,29.3443845 52.6519389,29.2495534 53.9967805,29.656078 C55.5558724,30.1275647 56.7367754,31.2041535 57.3675444,32.9786313 C57.8872984,34.4411317 57.7842903,35.99534 57.1025283,37.3364338 C56.4824917,38.5565754 55.5693872,39.3657631 54.4180124,39.7078934 L54.396718,40.8906703 C55.9960137,40.442863 57.3658976,39.3374274 58.1130192,37.8672042 C58.9256141,36.2686467 59.0335626,34.4328978 58.4169899,32.6982264" id="Fill-9"></path>
                    </g>
                </g>
            </g>
        </g>
    </g>
</svg>