<?xml version="1.0" encoding="UTF-8"?>
<svg viewBox="0 0 144 14" preserveAspectRatio="none" version="1.1" xmlns="http://www.w3.org/2000/svg" xmlns:xlink="http://www.w3.org/1999/xlink">
    <title>icon/h1-line</title>
    <g id="Page-1" stroke="none" stroke-width="1" fill="none" fill-rule="evenodd">
        <g id="wine-sudwand" transform="translate(-624.000000, -289.000000)" fill="#FFFFFF">
            <g id="icon/h1-line" transform="translate(623.000000, 289.000000)">
                <path d="M76.8741,33.9412 C76.7181,39.0632 75.1231,44.1402 73.7151,48.6212 L73.6941,48.6862 C73.4291,49.5342 73.1611,50.3842 72.9001,51.2362 C71.7201,55.0972 70.5991,59.2492 70.3971,63.4502 C70.2991,65.5192 70.4481,67.4932 70.8121,69.3412 C68.9471,64.7852 68.0931,59.4572 68.3691,53.6952 C68.7011,46.7412 70.5681,39.8302 72.5361,33.3972 C72.9751,31.9652 73.4231,30.5362 73.8711,29.1112 L73.9051,29.0012 C74.4581,27.2432 75.0261,25.4292 75.5781,23.5742 C76.4151,26.9882 76.9801,30.4492 76.8741,33.9412 M79.2981,2.4912 C79.2981,-7.7298 76.1611,-17.7178 73.1231,-27.3918 C72.7701,-28.5138 72.4191,-29.6338 72.0721,-30.7528 C70.3201,-36.4098 68.4531,-43.0238 67.6111,-49.6048 C68.0471,-51.5098 68.8381,-53.1868 70.1271,-54.7298 C71.2791,-56.1118 73.7321,-57.1628 74.5861,-58.7458 C75.4391,-60.3298 75.6601,-62.4418 74.5151,-63.8288 C73.0491,-65.6008 70.0171,-65.2298 68.3931,-63.6008 C66.7681,-61.9718 66.2551,-59.5478 66.0841,-57.2538 C65.8551,-54.1938 66.1051,-51.1628 66.6741,-48.1698 C67.5931,-41.9398 69.3551,-35.7578 71.0071,-30.4228 C71.3541,-29.3028 71.7061,-28.1818 72.0591,-27.0588 C75.2171,-17.0028 78.4841,-6.6078 78.1601,3.9452 C77.9921,9.4902 76.8191,15.0042 75.3751,20.2402 C74.9001,18.5912 74.3921,16.9542 73.8831,15.3332 C73.6731,14.6672 73.4651,14.0022 73.2591,13.3372 C72.2191,9.9782 71.1091,6.0502 70.6091,2.1432 C70.8681,1.0122 71.3381,0.0162 72.1031,-0.9008 C72.7871,-1.7208 74.2441,-2.3448 74.7511,-3.2848 C75.2581,-4.2248 75.3901,-5.4798 74.7091,-6.3028 C73.8381,-7.3558 72.0381,-7.1348 71.0731,-6.1678 C70.1081,-5.2008 69.8051,-3.7608 69.7031,-2.3988 C69.5671,-0.5818 69.7151,1.2182 70.0531,2.9952 C70.5991,6.6942 71.6451,10.3652 72.6261,13.5332 C72.8321,14.1982 73.0411,14.8642 73.2511,15.5312 C73.8651,17.4892 74.4801,19.4712 75.0321,21.4682 C74.3241,23.9442 73.5681,26.3532 72.8421,28.6672 L72.8071,28.7772 C72.3581,30.2052 71.9091,31.6362 71.4701,33.0712 C69.4801,39.5732 67.5931,46.5652 67.2551,53.6412 C66.8471,62.1922 68.8541,69.8412 72.9431,75.5242 C73.2111,76.0162 73.5061,76.4942 73.8491,76.9442 C74.3311,77.5792 74.9371,78.1872 75.7181,78.3542 C76.4981,78.5212 77.4501,78.0572 77.5421,77.2642 C77.6131,76.6452 77.1501,76.0722 76.6031,75.7732 C76.0561,75.4732 75.1441,75.6312 74.5471,75.4472 C74.4101,75.4042 74.2901,75.3402 74.1631,75.2872 C73.5821,74.5142 73.0431,73.7032 72.5451,72.8532 C71.4141,70.1302 70.8941,66.9382 71.0601,63.4822 C71.2571,59.3532 72.3651,55.2492 73.5341,51.4292 C73.7941,50.5792 74.0611,49.7312 74.3261,48.8842 L74.3471,48.8192 C75.7681,44.2982 77.3771,39.1742 77.5351,33.9612 C77.5451,33.6662 77.5491,33.3722 77.5491,33.0782 C77.5491,29.4372 76.8731,25.8472 75.9471,22.3162 C77.6341,16.4932 79.0841,10.2752 79.2751,3.9792 C79.2901,3.4832 79.2981,2.9862 79.2981,2.4912" id="Fill-1" transform="translate(72.648881, 6.694046) rotate(90.000000) translate(-72.648881, -6.694046) "></path>
            </g>
        </g>
    </g>
</svg>