<?xml version="1.0" encoding="UTF-8"?>
<svg width="15px" height="20px" viewBox="0 0 15 20" version="1.1" xmlns="http://www.w3.org/2000/svg" xmlns:xlink="http://www.w3.org/1999/xlink">
    <title>icon/wine-bokal@2x</title>
    <g id="Page-1" stroke="none" stroke-width="1" fill="none" fill-rule="evenodd">
        <g id="wine-fraenberg-1920" transform="translate(-1060.000000, -576.000000)" fill="#EBCB9A" fill-rule="nonzero">
            <g id="icon/wine-bokal" transform="translate(1060.000000, 576.000000)">
                <path d="M4.97674419,11.9069767 C2.3255814,11.9069767 0.162790698,9.74418605 0.162790698,7.09302326 L0.162790698,0.534883721 C0.162790698,0.302325581 0.348837209,0.11627907 0.581395349,0.11627907 L9.34883721,0.11627907 C9.58139535,0.11627907 9.76744186,0.302325581 9.76744186,0.534883721 L9.76744186,7.09302326 C9.79069767,9.74418605 7.62790698,11.9069767 4.97674419,11.9069767 Z M1.02325581,0.953488372 L1.02325581,7.09302326 C1.02325581,9.27906977 2.79069767,11.0465116 4.97674419,11.0465116 C7.1627907,11.0465116 8.93023256,9.27906977 8.93023256,7.09302326 L8.93023256,0.953488372 L1.02325581,0.953488372 Z" id="Shape"></path>
                <path d="M9.37209302,3 L4.27906977,3 C4.04651163,3 3.86046512,2.81395349 3.86046512,2.58139535 C3.86046512,2.34883721 4.04651163,2.1627907 4.27906977,2.1627907 L8.95348837,2.1627907 L8.95348837,1 L1.04651163,1 L1.04651163,2.1627907 L2.30232558,2.1627907 C2.53488372,2.1627907 2.72093023,2.34883721 2.72093023,2.58139535 C2.72093023,2.81395349 2.53488372,3 2.30232558,3 L0.627906977,3 C0.395348837,3 0.209302326,2.81395349 0.209302326,2.58139535 L0.209302326,0.534883721 C0.209302326,0.302325581 0.395348837,0.11627907 0.627906977,0.11627907 L9.39534884,0.11627907 C9.62790698,0.11627907 9.81395349,0.302325581 9.81395349,0.534883721 L9.81395349,2.55813953 C9.79069767,2.79069767 9.60465116,3 9.37209302,3 Z" id="Path"></path>
                <path d="M4.97674419,19.8837209 C4.74418605,19.8837209 4.55813953,19.6976744 4.55813953,19.4651163 L4.55813953,11.4883721 C4.55813953,11.255814 4.74418605,11.0697674 4.97674419,11.0697674 C5.20930233,11.0697674 5.39534884,11.255814 5.39534884,11.4883721 L5.39534884,19.4651163 C5.41860465,19.6976744 5.20930233,19.8837209 4.97674419,19.8837209 Z" id="Path"></path>
                <path d="M14.2790698,19.8837209 L0.604651163,19.8837209 C0.372093023,19.8837209 0.186046512,19.6976744 0.186046512,19.4651163 C0.186046512,19.2325581 0.372093023,19.0465116 0.604651163,19.0465116 L14.3023256,19.0465116 C14.5348837,19.0465116 14.7209302,19.2325581 14.7209302,19.4651163 C14.7209302,19.6976744 14.5116279,19.8837209 14.2790698,19.8837209 Z" id="Path"></path>
                <path d="M9.90697674,19.8837209 C9.6744186,19.8837209 9.48837209,19.6976744 9.48837209,19.4651163 L9.48837209,11.4883721 C9.48837209,11.255814 9.6744186,11.0697674 9.90697674,11.0697674 C10.1395349,11.0697674 10.3255814,11.255814 10.3255814,11.4883721 L10.3255814,19.4651163 C10.3255814,19.6976744 10.1395349,19.8837209 9.90697674,19.8837209 Z" id="Path"></path>
                <path d="M9.90697674,11.9069767 C8.93023256,11.9069767 8,11.627907 7.20930233,11.0697674 C7.09302326,11 7.02325581,10.8604651 7.02325581,10.7209302 C7.02325581,10.5813953 7.09302326,10.4418605 7.20930233,10.372093 C8.30232558,9.62790698 8.95348837,8.41860465 8.95348837,7.09302326 L8.95348837,0.534883721 C8.95348837,0.302325581 9.13953488,0.11627907 9.37209302,0.11627907 L14.3023256,0.11627907 C14.5348837,0.11627907 14.7209302,0.302325581 14.7209302,0.534883721 L14.7209302,7.09302326 C14.7209302,9.74418605 12.5581395,11.9069767 9.90697674,11.9069767 Z M8.20930233,10.6744186 C8.74418605,10.9302326 9.3255814,11.0465116 9.90697674,11.0465116 C12.0930233,11.0465116 13.8604651,9.27906977 13.8604651,7.09302326 L13.8604651,0.953488372 L9.79069767,0.953488372 L9.79069767,7.09302326 C9.79069767,8.46511628 9.20930233,9.76744186 8.20930233,10.6744186 Z" id="Shape"></path>
            </g>
        </g>
    </g>
</svg>