<?xml version="1.0" encoding="UTF-8"?>
<svg width="316px" height="201px" viewBox="0 0 316 201" version="1.1" xmlns="http://www.w3.org/2000/svg" xmlns:xlink="http://www.w3.org/1999/xlink">
    <title>Group 6</title>
    <g id="Page-1" stroke="none" stroke-width="1" fill="none" fill-rule="evenodd">
        <g id="shop-4" transform="translate(-992.000000, -732.000000)">
            <g id="Group-6" transform="translate(992.000000, 732.000000)">
                <path d="M257.927185,-19.1501885 L246.207886,-19.1501885 L246.207886,-35.9053507 C233.669875,-39.2779972 234.607886,-40.0274742 217.047652,-47.1446989 C200.575138,-53.8198162 180.358764,-57.5728154 157.923676,-57.5728154 C135.492097,-57.5728154 115.275723,-53.8198162 98.8043776,-47.1446989 C81.2464829,-40.0274742 82.1844946,-39.2779972 69.6429741,-35.9053507 L69.6429741,-19.1501885 L57.9271846,-19.1501885 L57.9271846,219.794031 L69.6429741,219.794031 L69.6429741,236.552001 C82.1844946,239.923244 81.2464829,240.671317 98.8043776,247.787138 C115.275723,254.463659 135.492097,258.216658 157.923676,258.216658 C180.358764,258.216658 200.575138,254.463659 217.047652,247.787138 C234.607886,240.671317 233.669875,239.923244 246.207886,236.552001 L246.207886,219.794031 L257.927185,219.794031 L257.927185,-19.1501885 Z" id="Fill-1" fill="#767676" transform="translate(157.927185, 100.321921) rotate(90.000000) translate(-157.927185, -100.321921) "></path>
                <path d="M253.427185,-15.366905 L242.264553,-15.366905 L242.264553,-31.5914871 C230.322097,-34.8573332 231.215553,-35.5830767 214.48943,-42.4749226 C198.79936,-48.9386612 179.543264,-52.5728154 158.173843,-52.5728154 C136.807764,-52.5728154 117.551667,-48.9386612 101.862711,-42.4749226 C85.1388162,-35.5830767 86.0322723,-34.8573332 74.0864741,-31.5914871 L74.0864741,-15.366905 L62.9271846,-15.366905 L62.9271846,216.010748 L74.0864741,216.010748 L74.0864741,232.238048 C86.0322723,235.502535 85.1388162,236.226919 101.862711,243.117406 C117.551667,249.582504 136.807764,253.216658 158.173843,253.216658 C179.543264,253.216658 198.79936,249.582504 214.48943,243.117406 C231.215553,236.226919 230.322097,235.502535 242.264553,232.238048 L242.264553,216.010748 L253.427185,216.010748 L253.427185,-15.366905 Z" id="Fill-1" stroke="#FFFAEB" stroke-width="0.5" transform="translate(158.177185, 100.321921) rotate(90.000000) translate(-158.177185, -100.321921) "></path>
            </g>
        </g>
    </g>
</svg>