<?xml version="1.0" encoding="UTF-8"?>
<svg width="185px" height="130px" viewBox="0 0 185 130" version="1.1" xmlns="http://www.w3.org/2000/svg" xmlns:xlink="http://www.w3.org/1999/xlink">
    <title>logo</title>
    <defs>
        <polygon id="path-1" points="0 0.00916034756 27.6829696 0.00916034756 27.6829696 47.1646701 0 47.1646701"></polygon>
        <polygon id="path-3" points="0.0268699791 0.0211897118 152.547228 0.0211897118 152.547228 84.5807824 0.0268699791 84.5807824"></polygon>
    </defs>
    <g id="Page-1" stroke="none" stroke-width="1" fill="none" fill-rule="evenodd">
        <g id="into" transform="translate(-628.000000, -206.000000)">
            <g id="logo" transform="translate(628.000000, 206.000000)">
                <polygon id="Fill-1" fill="#FEFEFE" points="99.4543931 -0.000124645364 87.0963395 4.23211964 87.174688 7.73429823 97.7634897 4.03428964 110.064741 29.6868396 128.44459 24.5644494 156.276297 79.9331663 159.9934 79.951507 130.157751 20.6936767 111.827226 25.8023559"></polygon>
                <g id="Group-12" transform="translate(0.000000, 7.600340)">
                    <path d="M68.0879928,7.07812942 C68.0879928,5.785557 67.0402595,4.73764562 65.7476871,4.73764562 C64.4549366,4.73764562 63.4072033,5.785557 63.4072033,7.07812942 C63.4072033,8.3708799 64.4549366,9.41843515 65.7476871,9.41843515 C67.0402595,9.41843515 68.0879928,8.3708799 68.0879928,7.07812942" id="Fill-2" fill="#FEFEFE"></path>
                    <g id="Group-6" transform="translate(0.000000, 10.505823)">
                        <mask id="mask-2" fill="white">
                            <use xlink:href="#path-1"></use>
                        </mask>
                        <g id="Clip-5"></g>
                        <path d="M5.15599107,11.0926717 C5.15599107,1.06245927 23.2290346,1.16270976 23.2290346,10.9256469 L26.7930017,9.78870311 C26.7930017,-2.64858933 1.51705872,-4.35391597 1.51705872,11.2931726 C1.51705872,26.4388308 24.1188244,18.3256641 23.8746976,33.7606775 C23.6581708,47.4600933 3.51049421,45.8972185 3.51049421,34.2371789 L-5.34194415e-05,35.3655756 C-5.34194415e-05,50.2103042 27.6829696,52.7886825 27.6829696,32.954222 C27.6829696,15.4841059 5.15599107,22.3264241 5.15599107,11.0926717" id="Fill-4" fill="#FEFEFE" mask="url(#mask-2)"></path>
                    </g>
                    <path d="M53.3659508,21.033175 C58.4067874,21.7787324 57.3909277,29.2189922 44.9338701,34.3064817 C43.1815343,28.6171331 47.9025665,20.2251169 53.3659508,21.033175 M47.8530645,44.7323541 C49.8728536,45.6036252 51.5085569,45.506758 51.5085569,45.506758 C58.0054293,45.506758 63.1559538,40.0985737 64.8771282,38.0456646 C66.8967392,41.008841 71.5201919,41.4556056 77.1671611,35.6953872 C79.334922,38.0175303 83.4272074,38.1081653 87.8699242,33.7129917 L87.8699242,29.4527913 C84.7943889,33.5835386 79.1869501,35.2760446 79.1869501,29.8596693 C79.1869501,25.7139646 79.2642303,1.13692597 79.2642303,1.13692597 L75.5494423,0.0295409512 L75.5494423,31.1543785 C75.5494423,31.6816284 75.598054,32.1876886 75.6904696,32.6673952 C72.5944569,36.6134893 67.5844255,38.1726248 67.5844255,32.8687865 C67.5844255,28.7230817 67.6617056,13.7748974 67.6617056,13.7748974 L63.9073873,12.6899486 L63.78292,33.7877789 C63.019022,35.5856993 60.2107619,38.8033303 56.4551971,40.5919913 C52.632858,42.4123478 48.5995121,43.1495361 46.258138,38.0839485 C46.258138,38.0839485 57.8198858,33.6086458 59.4981466,26.8952465 C61.3211741,19.6027804 56.4954398,17.3137574 52.2945349,17.3849833 C46.071348,17.4902196 38.1093583,26.5490885 41.4970413,37.0481455 C42.3540672,39.7043382 43.5937543,41.528078 44.9103655,42.7800516 C40.5422578,46.7711961 35.0071133,47.9884471 35.0543005,43.8154984 C35.0799418,41.533776 35.1007754,33.0584255 35.1143083,25.8982616 L39.1302039,24.6576841 L39.1392852,20.6987693 L35.1212529,21.9592901 C35.1278412,17.9809662 35.1315806,15.078866 35.1315806,15.078866 L31.4167926,13.988041 L31.4167926,23.121341 L28.8729588,23.9192494 L28.8498104,27.8334699 L31.4167926,27.0405474 L31.4167926,45.1102076 C31.4167926,50.8184311 38.0931544,53.2344144 47.8530645,44.7323541" id="Fill-7" fill="#FEFEFE"></path>
                    <g id="Group-11" transform="translate(31.873600, 36.681350)">
                        <mask id="mask-4" fill="white">
                            <use xlink:href="#path-3"></use>
                        </mask>
                        <g id="Clip-10"></g>
                        <path d="M23.3455246,35.6264939 C22.6402099,40.1920755 17.0252924,45.6928535 12.3836771,45.2086953 C7.18204804,44.666488 7.16673447,37.1450306 8.60727874,33.098864 C9.96484481,29.2864965 14.3712365,22.8791907 19.6049172,24.1820908 C24.3095674,25.3535792 24.0287592,31.2022958 23.3455246,35.6264939 M151.308413,58.2522984 C148.963834,51.6555315 144.76382,47.3999608 138.826605,45.6045333 C133.979681,44.1394161 127.971596,44.4200463 121.452644,46.4172211 L121.42718,46.4248779 C121.42718,46.4248779 28.5808079,78.9872327 22.6825893,80.625785 C21.1257687,81.0583044 3.43307163,83.4794516 3.43307163,67.8403759 C3.43307163,60.7906122 9.16889513,55.0551448 16.2186588,55.0551448 C17.6716676,55.0551448 19.9742236,56.8924175 21.6551554,58.2336016 C22.4790612,58.891373 23.2570264,59.5110385 23.9641217,59.9652818 L23.8437499,60.0375761 L23.9938585,59.9854031 L24.0330328,59.9243269 L27.4433299,57.8872655 C27.4433299,53.1833276 27.5036939,30.4676004 27.517583,25.2884075 C29.0103002,25.2344538 31.0032015,24.1377527 33.5767722,21.4810258 L33.4825759,35.1902352 C33.6152341,40.8044404 39.6660543,45.7281103 49.4190198,36.0853669 C51.6081485,37.8889853 56.033415,38.4253165 61.3673463,32.9615761 L61.5787092,32.7550209 C64.1212965,34.6699298 69.0018748,34.0224862 75.602559,28.1306779 L75.5879577,23.7517082 C70.9050314,29.2421584 63.2320409,32.3098589 63.2320409,26.8936617 C63.2320409,24.6835213 63.2541209,17.5187278 63.2744203,11.30943 L67.5376479,9.99246266 L67.5467292,6.03372592 L63.2875971,7.36974615 C63.3000617,3.78316485 63.309321,1.16507802 63.309321,1.16507802 L59.594355,0.0211897118 L59.594355,8.52805771 L57.2805809,9.25420598 L57.2572544,13.1682485 L59.594355,12.4461957 L59.594355,28.1881928 C59.594355,28.8352803 59.6707448,29.4474671 59.8188947,30.0135351 C56.7248407,33.9298925 51.8277024,35.4608937 51.8277024,30.1750399 C51.8277024,26.0293351 51.9053387,13.252295 51.9053387,13.252295 L48.0671518,12.0993254 L47.9449993,32.6672349 C44.2578114,38.0421211 36.9309789,39.7695277 37.1631754,33.6914637 C37.3218311,29.5486079 37.2408116,17.7156675 37.2408116,17.7156675 L33.6095361,16.7478852 L33.6088238,16.826946 L33.5897709,16.780293 C30.5140575,20.9110404 27.682649,22.8391261 27.484641,19.9637356 L23.8469551,18.8942784 C23.8469551,18.9395069 23.8478454,18.9845573 23.8482015,19.0296076 L23.8414351,19.019636 L23.833066,21.7164275 C23.1427088,21.2046692 22.3391023,20.8172002 21.4110285,20.585894 C14.3619771,18.8308873 7.99829711,25.7848522 5.92615697,30.8258668 C3.4585349,36.8284314 3.67043202,47.8314118 11.7702439,48.5082361 C16.0528805,48.8661464 20.7260132,46.666868 23.7684285,42.8005469 L23.7328155,55.5341391 C21.4405873,53.7048794 18.8467173,51.6489431 16.2186588,51.6489431 C7.29048951,51.6489431 0.0268699791,58.9123846 0.0268699791,67.8403759 C0.0268699791,87.0749361 20.0117953,84.9378023 22.6825893,84.0065234 C40.2372862,77.8859018 122.435561,49.5347797 122.435561,49.5347797 C128.322562,47.7354349 133.230562,47.4380666 137.447671,48.7128326 C142.336618,50.1913047 146.039654,53.5672353 148.017598,59.1315824 C149.647425,63.7176414 149.324415,68.5912752 147.186569,72.7966317 C145.24228,76.6227101 142.378998,79.1601336 138.768556,80.232974 L138.701781,83.9418859 C143.716799,82.5376668 148.012434,79.0712793 150.355233,74.4610034 C152.90334,69.4483011 153.241841,63.691822 151.308413,58.2522984" id="Fill-9" fill="#FEFEFE" mask="url(#mask-4)"></path>
                    </g>
                </g>
            </g>
        </g>
    </g>
</svg>