<?xml version="1.0" encoding="UTF-8"?>
<svg width="171px" height="325px" viewBox="0 0 171 325" preserveAspectRatio="none" version="1.1" xmlns="http://www.w3.org/2000/svg" xmlns:xlink="http://www.w3.org/1999/xlink">
    <title>Group</title>
    <g id="Page-1" stroke="none" stroke-width="1" fill="none" fill-rule="evenodd">
        <g id="main2-video" transform="translate(-132.000000, -93.000000)">
            <g id="Group" transform="translate(132.000000, 93.000000)">
                <path d="M171,27.376 L160.98,27.376 L160.98,15.438 C150.26,13.035 151.062,12.501 136.048,7.43 C121.964,2.674 104.679,3.41060513e-13 85.497,3.41060513e-13 C66.318,3.41060513e-13 49.033,2.674 34.95,7.43 C19.938,12.501 20.74,13.035 10.017,15.438 L10.017,27.376 L0,27.376 L0,297.623 L10.017,297.623 L10.017,309.563 C20.74,311.965 19.938,312.498 34.95,317.568 C49.033,322.325 66.318,324.999 85.497,324.999 C104.679,324.999 121.964,322.325 136.048,317.568 C151.062,312.498 150.26,311.965 160.98,309.563 L160.98,297.623 L171,297.623 L171,27.376 Z" id="menu1" fill-opacity="0.69" fill="#000000"></path>
                <path d="M85.9972281,5.5 C68.8952614,5.5 53.1121086,7.83108752 39.9664268,12.2089837 L38.3027977,12.7768815 C33.0925014,14.5851278 25.321295,17.4687416 24.839836,17.6324426 C24.1144558,17.8790791 23.4190901,18.1014082 22.6927221,18.317822 L22.0721857,18.4990819 C20.6995461,18.8922506 19.1308511,19.2915473 17.1102439,19.7608349 L15.7554737,20.0711004 L15.755,31.159 L6.5,31.1597986 L6.5,291.734014 L15.755,291.734 L15.7554737,302.824624 L17.110383,303.13479 C19.4420514,303.676086 21.1717727,304.124138 22.6927927,304.577066 C23.1770675,304.721273 23.6475489,304.868104 24.1223067,305.023004 L24.9830906,305.312827 C26.2356985,305.763539 34.2322453,308.723367 39.1309277,310.401672 C52.440368,314.962252 68.5305607,317.393813 85.9972281,317.393813 C103.102239,317.393813 118.885435,315.062635 132.031707,310.683937 L133.695401,310.116075 C138.905841,308.308405 146.676913,305.426062 147.160953,305.261562 C147.885684,305.015264 148.580478,304.79321 149.306204,304.577058 L149.926577,304.395903 C151.193287,304.033186 152.626975,303.665233 154.428923,303.241811 L156.241754,302.824599 L156.241,291.734 L165.5,291.734014 L165.5,31.1597986 L156.241,31.159 L156.241754,20.0711252 L153.986195,19.5490059 C152.09917,19.0997579 150.624457,18.7106518 149.306275,18.3178302 C148.822487,18.1736601 148.352432,18.0268619 147.878065,17.8719957 L147.019309,17.5826991 C145.774844,17.1345812 137.77196,14.1716902 132.867234,12.4912067 C119.555748,7.9312089 103.465346,5.5 85.9972281,5.5 Z M85.9972281,6.5 C102.997949,6.5 118.6747,8.81519181 131.714405,13.157322 L133.088381,13.6249014 C138.28382,15.420785 146.336069,18.408689 146.839106,18.5797322 C147.575683,18.8301834 148.282553,19.0562169 149.020684,19.2761818 L149.331937,19.3680275 L150.305627,19.6442928 C151.537444,19.9839083 152.93651,20.3342501 154.658596,20.7343438 L155.241,20.868 L155.241754,32.1597986 L164.5,32.159 L164.5,290.734 L155.241754,290.734014 L155.241,302.026 L153.750272,302.374711 C151.847718,302.82751 150.356964,303.220685 149.020754,303.618664 C148.528639,303.765237 148.050433,303.914502 147.568078,304.071891 L146.756229,304.343872 C145.740054,304.706184 137.80902,307.643684 132.812692,309.363091 L132.543134,309.455646 C119.341874,313.978836 103.360478,316.393813 85.9972281,316.393813 C68.9979507,316.393813 53.321456,314.07829 40.2836634,309.735603 L38.6297901,309.171022 C33.4361482,307.368885 25.6655258,304.486492 25.1616738,304.315265 C24.424539,304.064759 23.7170608,303.838677 22.9781873,303.618656 L22.6669239,303.526877 C21.4099482,303.159864 20.0042869,302.792706 18.2475398,302.374725 L16.755,302.026 L16.7554737,290.734014 L7.5,290.734 L7.5,32.159 L16.7554737,32.1597986 L16.755,20.868 L17.8008437,20.6264215 C19.9201533,20.128294 21.5388791,19.7050379 22.9782579,19.27619 C23.4708127,19.1294385 23.9494281,18.9799885 24.432203,18.8223938 L25.2444273,18.5501643 C26.2582135,18.1885026 34.1894385,15.2496959 39.1855223,13.5297944 L39.4550658,13.4372133 C52.6556476,8.91488576 68.6370763,6.5 85.9972281,6.5 Z" id="menu2" fill="#EBCB9A" fill-rule="nonzero"></path>
            </g>
        </g>
    </g>
</svg>