<?xml version="1.0" encoding="UTF-8"?>
<svg width="100px" height="12px" viewBox="0 0 100 12" preserveAspectRatio="none" version="1.1" xmlns="http://www.w3.org/2000/svg" xmlns:xlink="http://www.w3.org/1999/xlink">
    <title>Group 3</title>
    <defs>
        <path d="M5.281,0.287 C4.391,2.015 2.63,3.513 0.323,4.504 L0.323,4.504 C0.127,4.588 0,4.784 0,5 L0,5 C0,5.216 0.127,5.411 0.323,5.496 L0.323,5.496 C2.629,6.485 4.389,7.982 5.281,9.711 L5.281,9.711 C5.372,9.888 5.553,9.999 5.748,9.999 L5.748,9.999 C5.944,9.999 6.124,9.888 6.214,9.711 L6.214,9.711 C7.072,8.045 8.745,6.6 10.928,5.611 L10.928,5.611 C10.953,5.613 10.975,5.622 11,5.62 L11,5.62 C26.49,4.702 56.755,5.479 56.755,5.479 L56.755,5.479 L64.334,5.683 L73.197,5.889 L86.361,6.036 C86.361,6.036 86.448,5.893 86.49,5.823 L86.49,5.823 C86.523,5.779 86.555,5.736 86.574,5.683 L86.574,5.683 C86.849,5.222 87.132,4.758 87.449,4.334 L87.449,4.334 C88.764,2.567 90.734,1.38 92.717,1.158 L92.717,1.158 C94.846,0.92 97.012,1.811 98.233,3.427 L98.233,3.427 C99.517,5.124 99.659,7.591 98.572,9.29 L98.572,9.29 C97.451,11.042 95.015,11.782 93.25,10.907 L93.25,10.907 C91.929,10.25 91.11,8.786 91.303,7.423 L91.303,7.423 C91.401,6.728 91.818,6.044 92.419,5.596 L92.419,5.596 C92.968,5.185 93.599,5.014 94.193,5.113 L94.193,5.113 C94.834,5.22 95.43,5.708 95.751,6.385 L95.751,6.385 C96.046,7.008 96.052,7.66 95.771,8.176 L95.771,8.176 C95.675,8.348 95.736,8.567 95.906,8.664 L95.906,8.664 C96.075,8.76 96.289,8.698 96.383,8.525 L96.383,8.525 C96.78,7.803 96.78,6.909 96.384,6.073 L96.384,6.073 C95.967,5.189 95.169,4.55 94.306,4.406 L94.306,4.406 C93.523,4.275 92.706,4.492 92.003,5.019 L92.003,5.019 C91.242,5.586 90.733,6.426 90.606,7.322 L90.606,7.322 C90.373,8.982 91.353,10.762 92.942,11.552 L92.942,11.552 C95.045,12.596 97.833,11.755 99.162,9.682 L99.162,9.682 C100.406,7.735 100.251,4.92 98.79,2.99 L98.79,2.99 C97.422,1.179 95.007,0.181 92.64,0.446 L92.64,0.446 C90.436,0.691 88.34,1.951 86.889,3.899 L86.889,3.899 C86.632,4.245 86.4,4.607 86.177,4.973 L86.177,4.973 C86.145,4.967 86.117,4.954 86.085,4.954 L86.085,4.954 C81.801,4.954 73.31,4.814 73.31,4.814 L73.31,4.814 L64.496,4.612 L58.721,4.456 C58.721,4.456 27.297,3.594 11.22,4.533 L11.22,4.533 C11.205,4.524 11.174,4.504 11.174,4.504 L11.174,4.504 C11.174,4.504 7.105,2.015 6.214,0.287 L6.214,0.287 C6.124,0.11 5.944,0 5.748,0 L5.748,0 C5.553,0 5.372,0.11 5.281,0.287 L5.281,0.287 Z M1.77,5 C3.471,4.101 4.842,2.921 5.748,1.575 L5.748,1.575 C6.654,2.921 8.024,4.101 9.725,5 L9.725,5 C8.024,5.898 6.654,7.078 5.748,8.424 L5.748,8.424 C4.842,7.077 3.471,5.897 1.77,5 L1.77,5 Z" id="path-1"></path>
    </defs>
    <g id="Page-1" stroke="none" stroke-width="1" fill="none" fill-rule="evenodd">
        <g id="shop-2-steilclub-sale" transform="translate(-170.000000, -73.000000)">
            <g id="Group-3" transform="translate(170.000000, 73.000000)">
                <mask id="mask-2" fill="white">
                    <use xlink:href="#path-1"></use>
                </mask>
                <g id="Clip-2"></g>
                <polygon id="Fill-1" fill="#EBCB9A" mask="url(#mask-2)" points="-5 17 105 17 105 -5 -5 -5"></polygon>
            </g>
        </g>
    </g>
</svg>